<svg height="32" viewBox="0 0 32 32" width="32" xmlns="http://www.w3.org/2000/svg"><path d="m13.049 8.711.711-4.089h.249l.284-.142.818-.142h2.347l.356.107.356.036.64 4.231h1.884l1.244-3.556.711.142.782.107.711.213.782.32-.213 3.591q-.071.569-.196 1.049t-.373.907q-.213.427-.551.8t-.8.729l-.924-.107-.96-.178-2.204-.249-2.702-.284q-.32 0-.693.018t-.764.053-.8.107-.8.107q-.32 0-.693.036t-.8.071q-.427.071-.942.178t-1.12.213q-.498-.249-.853-.569t-.533-.676q-.213-.391-.373-.836t-.267-.907l-.356-4.053.818-.32.889-.249.711-.142.64-.071 1.244 3.556h1.742zm-3.662 6.222q.427-.107 1.12-.231t1.618-.231q.96-.142 1.92-.196t1.956-.053q.96 0 1.902.053t1.867.16q.96.107 1.707.231t1.316.267l1.244 8.32-4.338-.569h-6.862l-2.631.249-1.244.142-.96.107zm-4.338 15.609v-.924l.107-1.138q.036-.533.196-1.013t.373-.907q.213-.462.658-.729t1.049-.302l1.28-.107 1.458-.142 2.702-.249 3.129-.32q.427 0 .871.036t.907.036q.462.036.978.107t1.013.142q.604 0 1.244.036t1.28.142q.676.071 1.262.142t1.049.142q.462.036.818.356t.604.889q.036.107.124.356t.16.569.124.676.053.747l.036.711v.747h-21.476z"/></svg>