<svg height="64" preserveAspectRatio="none" viewBox="0 0 64 64" width="64" xmlns="http://www.w3.org/2000/svg"><path d="m40.1787109 22.5771484c0-.8896484-3.6621094-1.6113281-8.1787109-1.6113281-4.5170898 0-8.1787109.7216797-8.1787109 1.6113281 0 .6425781 1.9091797 1.1953125 4.6655273 1.4541016-.2402344 2.7148438-1.449707 10.3964844-1.449707 14.203125h9.9257813c0-3.8066406-1.2089844-11.4882813-1.4492188-14.203125 2.7558594-.2597656 4.665039-.8115234 4.665039-1.4541016z" fill="#2b2b2b"/><path d="m37.4628906 38.734375h-10.9257812v-.5c0-2.625.5537109-6.9589844.9990234-10.4404297.1669922-1.3085938.3154297-2.46875.4042969-3.3154297-3.065918-.3359375-4.6191406-.9746094-4.6191406-1.9013672 0-2.0527344 7.7905273-2.1113281 8.6787109-2.1113281s8.6787109.0585938 8.6787109 2.1113281c0 .9267578-1.5527344 1.5654297-4.6191406 1.9013672.0898438.8466797.2373047 2.0068359.4042969 3.3134766.4453125 3.4833984.9990234 7.8173828.9990234 10.4423828zm-9.9194336-1h8.9135742c-.0625-2.5957031-.5712891-6.5761719-.984375-9.8154297-.2041016-1.5927734-.3798828-2.96875-.4570313-3.84375l-.0439453-.4951172.4951172-.0458984c2.8017578-.2646484 3.8955078-.7412109 4.1650391-.9599609-.4716796-.4121094-3.0302734-1.1083985-7.6318359-1.1083985s-7.1601563.6962891-7.6318359 1.1083984c.2695313.2197266 1.3632813.6962891 4.1655273.9599609l.4951172.0458984-.0439453.4951172c-.0776367.8759766-.253418 2.2519531-.4570313 3.8457031-.4135742 3.2373048-.9223632 7.2187501-.984375 9.8134767z"/><path d="m24.157227 53.701172h15.685547v1.984375h-15.685547z" fill="#2b2b2b"/><path d="m40.3427734 56.1855469h-16.6855468v-2.984375h16.6855469v2.984375zm-15.6855468-1h14.6855469v-.984375h-14.6855469z"/><path d="m26.610352 40.076172h10.779297v1.984375h-10.779297z" fill="#2b2b2b"/><path d="m37.8896484 42.5605469h-11.7792968v-2.984375h11.7792969v2.984375zm-10.7792968-1h9.7792969v-.984375h-9.7792969z"/><path d="m36.1865234 46.3886719c-.1630859-.8242188.6787109-1.5644531.6787109-2.4667969-1.8925781 0-7.8203125 0-9.7294922 0 0 .9023438.8398438 1.6425781.6757813 2.4667969-.4072266 2.0664063-2.7714844 3.28125-2.7714844 5.5507813h13.9199219c0-2.2695313-2.3652343-3.4843751-2.7734375-5.5507813z" fill="#2b2b2b"/><path d="m39.4599609 52.4394531h-14.9199218v-.5c0-1.4150391.7753906-2.4257813 1.5249023-3.4023438.5629883-.734375 1.0947266-1.4277344 1.2558594-2.2451172.0551758-.2773438-.097168-.5986328-.2744141-.9707031-.1923828-.4052734-.4106445-.8642578-.4106445-1.3994141v-.5h10.7294922v.5c0 .5351563-.21875.9951172-.4121094 1.4003906-.1777344.3720703-.3310547.6933594-.2763672.9697266.1621094.8173828.6943359 1.5107422 1.2568359 2.2441406.7509766.9775391 1.5263672 1.9882813 1.5263672 3.4033203zm-13.8730468-1h12.8261719c-.1591797-.8447266-.7021484-1.5517578-1.2724609-2.2939453-.6083984-.7929688-1.2373047-1.6123047-1.4443359-2.6601563-.1191406-.6005859.1318359-1.1279297.3535156-1.5927734.0771484-.1611328.1513672-.3173828.2089844-.4707031h-8.5170898c.0576172.1533203.1318359.3095703.2080078.4697266.2211914.4658203.4716797.9931641.3520508 1.5947266-.2060547 1.046875-.8349609 1.8662109-1.4433594 2.6591797-.5693361.7421874-1.1118166 1.4492187-1.2714845 2.2939452z"/><path d="m32.0004883 24.6767578h2.1245117l1.6572266 12.1689453h-3.5908203s.7524414-4.2880859-.190918-12.1689453z"/><path d="m32.0004883 50.3007813h4.4614258s-2.7910156-2.9804688-1.234375-5.0761719h-3.2270508s1.8237305 2.6582031 0 5.0761719z"/><circle cx="32" cy="13.792969" fill="#2b2b2b" r="5.478516"/><path d="m32 19.7705078c-3.2963867 0-5.9785156-2.6816406-5.9785156-5.9775391 0-3.296875 2.6821289-5.9785156 5.9785156-5.9785156 3.296875 0 5.9785156 2.6816406 5.9785156 5.9785156 0 3.2958985-2.6816406 5.9775391-5.9785156 5.9775391zm0-10.9560547c-2.7451172 0-4.9785156 2.2333984-4.9785156 4.9785156s2.2333984 4.9775391 4.9785156 4.9775391 4.9785156-2.2324219 4.9785156-4.9775391-2.2333984-4.9785156-4.9785156-4.9785156z"/><path d="m32.9101563 17.0732422c-1.9331055.125.0170898-2.0146484 1.5390625-3.5458984 1.5234375-1.5302735 2.2382812 3.2998046-1.5390625 3.5458984z"/></svg>