<svg height="32" viewBox="0 0 32 32" width="32" xmlns="http://www.w3.org/2000/svg"><path d="m17.778 1.778q.32.32.516.747t.196.96q0 .32-.107.747t-.284.924l-.782 2.276q-.036.142-.089.267t-.089.16l-.142.391-.604 1.387-.427 1.102-.498-1.138q-.107-.249-.178-.462t-.142-.32q-.107-.213-.178-.373t-.107-.231l-.107-.391-.178-.391-.747-2.133q-.142-.498-.231-.907t-.089-.729v-.427q.071-.391.249-.747t.498-.676q.284-.32.729-.498t.978-.178q.569 0 1.031.16t.782.48zm3.733 12.764-.071-.249-.284-.462q-.036-.107-.142-.16t-.213-.053q-.142 0-.267.053t-.231.124l-.284.356-.071.142-.284.818-.32.711-.249.569-.178.498-.142.391v.853l.071.533q.036.107.142.16t.213.053q.071 0 .16-.071t.124-.178l.142-.533v-.64l.391-.64.498-.604.462-.533.427-.533.142-.427zm-11.2.391.107.213.32.533.462.533.462.604q.107.142.196.302t.124.338l.071.178v.462l.071.569q.071.107.178.16t.213.053q.036 0 .142-.053t.178-.16l.107-.533v-.853l-.107-.391-.249-.462-.213-.462-.356-.782-.213-.782-.071-.249-.284-.356-.178-.089t-.249-.089q-.107 0-.196.053t-.231.16l-.213.462q0 .107-.036.178l-.036.071-.071.178zm14.613 5.725.142.498.107.533.071.498q0 .107-.053.267t-.124.267q-.071.142-.284.284t-.498.249l-4.658-.569h-7.004l-2.809.249-1.138.142-1.102.107q-.213-.107-.391-.267t-.32-.338q-.071-.071-.107-.267t-.071-.444l.036-.356q0-.107.018-.231t.053-.16l.036-.213.071-.178.107-.604.071-.533q0-.249-.071-.462t-.213-.391q-.107-.178-.267-.356t-.409-.356l-.498-.427-.569-.533q-.32-.249-.693-.658t-.693-.871q-.32-.498-.48-1.138t-.16-1.387q0-1.28.444-2.364t1.262-1.938q.818-.924 1.831-1.369t2.151-.444q1.031 0 1.867.178t1.476.569q.569.32 1.049.729t.871.907l.071.107q.249.32.48.676t.373.676q.178.32.338.569t.302.391l.213.213h.356l.178-.178.533-.96q.107-.284.302-.64t.48-.747l.071-.107q.356-.427.871-.853t1.156-.782q.676-.391 1.636-.569t2.169-.178q1.138 0 2.133.409t1.778 1.227q.747.818 1.156 1.938t.409 2.542q0 .64-.178 1.227t-.498 1.013q-.32.462-.693.889t-.693.818l-.462.391-.391.462-.853 1.067q-.178.284-.249.587t-.071.587zm-19.733 9.884-.071-.071.071-.853.107-1.138q.036-.533.196-1.013t.373-.907q.213-.462.676-.729t1.031-.302l1.28-.107 1.387-.142 2.631-.249 3.129-.32q.391 0 .818.036t.924.036q.498.036 1.031.107t1.102.142q.569 0 1.244.036t1.316.142q.676.071 1.262.142t1.049.142q.462.036.836.356t.587.889q.036.107.124.356t.16.569.124.676.053.747l.036.711-.071.64.071.107h-21.476z"/></svg>