<svg height="32" viewBox="0 0 32 32" width="32" xmlns="http://www.w3.org/2000/svg"><path d="m29.724 30.542h-10.382q-.391 0-.711-.107t-.569-.284l-.747-.924-.071-.107-.284-.462-.249-.391-.356-.427-.32-.142q-.142.036-.231.089t-.124.053l-.284.32-.356.427-.32.533-.071.107q-.142.213-.391.462t-.498.462q-.284.178-.658.284t-.764.107h-9.991l-1.209-5.369h8.249q.142 0 .267-.071t.196-.213l.142-.64v-.249l.036-.178q.036-.178.107-.338t.107-.267q.107-.107.267-.196t.409-.089h11.058q.107 0 .196.071t.124.178l.142.498v.676q0 .178.036.32t.036.213q0 .142.089.213t.196.071h8.107zm-13.724-29.44q.853 0 1.44.213t.836.604q.284.356.427.747t.142.853v.604l-.178.711-.178.533-.071.462q0 .142.249.391t.676.569.924.782 1.067.996q.64.747 1.156 1.582t.907 1.76l.462 1.636.178 1.422q0 1.458-.124 2.489t-.373 1.6q-.462 1.209-1.102 1.636-.142.071-.32.142t-.356.107h-10.844q-.142 0-.373-.053t-.444-.16q-.32-.178-.64-.587t-.64-1.013q-.284-.604-.444-1.618t-.16-2.4q0-1.067.213-2.027t.64-1.742q.462-.818.942-1.511t1.013-1.227q.498-.569.978-1.031t.942-.782q.427-.32.658-.569t.231-.391l-.071-.462-.107-.427-.036-.107-.178-.711v-.604q0-.462.142-.853t.391-.747q.142-.213.32-.356t.409-.249.551-.16.747-.053zm-3.662 12.16v2.382h2.453v3.698h2.418v-3.698h2.453v-2.382h-2.453v-2.418h-2.418v2.418z"/></svg>