<svg height="32" viewBox="0 0 32 32" width="32" xmlns="http://www.w3.org/2000/svg"><path d="m15.076 3.271-.107.782q0 .427.213 1.173l.569 1.707.462-1.707q.107-.356.16-.658t.053-.516q0-.284-.036-.498t-.142-.284q-.107-.213-.533-.213-.213 0-.373.053t-.267.16zm2.631-1.458q.391.32.587.764t.196.942q0 .213-.089.569t-.231.853q-.107.533-.32 1.067t-.462 1.102l-.178.498-.213.498-.711 1.564-.533 1.031q-.107-.178-.249-.409t-.284-.551l-.604-1.493-.249-.569-.178-.604-.711-2.098q0-.071-.036-.249t-.071-.462-.089-.48-.053-.267q0-.462.196-.889t.551-.818q.356-.32.871-.498t1.084-.178q.533 0 .978.178t.8.498zm-2.631 14.187-.604-.604-.818-1.067-.853-1.28q-.427-.64-.942-1.209t-1.084-.996q-.604-.498-1.351-.729t-1.671-.231q-.462 0-.836.124t-.622.373q-.284.249-.516.569t-.409.676l-.284.889v.676q0 .818.16 1.511t.48 1.298q.32.569.764 1.156t.907 1.191l.818 1.031.747.96.569 1.102q.107.213.16.498t.053.569q.462-.071.853-.16t.676-.124q.284-.071.64-.089t.711-.018h6.222q.462 0 .924.036t.853.107q.213 0 .427.018t.356.018q.107 0 .356.036t.569.107q0-.427.107-.871t.32-.8q.249-.391.48-.782t.516-.711l.427-.533.462-.533q.427-.498.836-1.067t.729-1.138q.356-.604.533-1.316t.178-1.493q0-.889-.267-1.511t-.729-1.013q-.533-.391-1.209-.587t-1.493-.196q-.889 0-1.636.231t-1.28.729q-.569.498-1.049 1.049t-.836 1.156l-.782 1.209-.64 1.031q-.107.178-.249.338t-.32.302q-.142.107-.32.178t-.32.071q-.178 0-.356-.053t-.356-.124zm9.528 11.911q0-.604-.249-1.067t-.747-.711-1.173-.462-1.493-.356l-.996-.284h-2.169q-.142 0-.391-.089t-.498-.231h-2.027l-1.636.32h-1.173l-.924.284h-.498q-.569.036-1.12.213t-1.013.462-.711.782-.249 1.138h17.067zm-19.733 2.631q0-.818.018-1.404t.018-.871q0-.356.089-.747t.16-.853q.142-.889.693-1.707t1.404-1.529q0-.213-.018-.427t-.018-.356q0-.178-.071-.356t-.142-.32q-.142-.356-.338-.693t-.444-.622l-.676-.747-.676-.818q-.391-.462-.8-1.049t-.764-1.262q-.178-.32-.338-.711t-.267-.818q-.107-.391-.178-.853t-.071-.924v-.96q.142-1.031.569-1.973t1.102-1.76q.711-.818 1.618-1.244t2.009-.427q1.067 0 1.938.231t1.547.693q.64.462 1.227.96t1.013 1.102q.391.498.747 1.013t.604 1.049q.213.427.462.676t.462.249q.107 0 .284-.249t.391-.676q.213-.462.569-.996t.782-1.067q.427-.569 1.031-1.084t1.28-.978 1.6-.693 2.062-.231q1.493 0 2.578.48t1.796 1.44q.711.996 1.067 2.187t.356 2.542q0 .782-.196 1.476t-.551 1.298l-.356.64t-.356.533q-.178.249-.391.533t-.498.604l-1.102 1.422-.853 1.316-.284.782-.107.747v.178l.036.142q.853.676 1.387 1.458t.676 1.707q.178.924.249 1.92t.071 2.027z"/></svg>