<svg height="32" viewBox="0 0 32 32" width="32" xmlns="http://www.w3.org/2000/svg"><path d="m19.911 7.467q.107.107.302.178t.409.107q.213 0 .427-.071t.356-.213q.107-.142.178-.338t.107-.444q0-.213-.071-.391t-.178-.284-.32-.213-.498-.107q-.178 0-.356.071t-.284.178-.213.302-.142.444q0 .249.071.444t.213.338zm-9.351 0q.142.107.338.178t.409.107q.213 0 .409-.071t.302-.213q.356-.32.356-.782 0-.178-.071-.356t-.213-.32q-.107-.142-.32-.231t-.462-.089q-.178 0-.356.071t-.32.178q-.107.107-.196.302t-.124.444q0 .249.071.444t.178.338zm16.569 3.662q.107.107.267.196t.373.089q.142 0 .302-.071t.267-.178.213-.284.107-.391q0-.178-.071-.32t-.213-.249q-.071-.142-.231-.231t-.373-.089q-.32 0-.569.249-.107.107-.178.284t-.107.356q0 .178.053.338t.16.302zm-23.573 0q.107.107.267.196t.338.089q.213 0 .373-.089t.267-.196.178-.284.107-.356q0-.32-.213-.533-.107-.107-.302-.213t-.409-.142q-.32 0-.533.249-.107.107-.196.284t-.089.356.053.338.16.302zm17.991 7.644-1.316-7.751-4.267 7.573-4.196-7.573-1.387 7.822-3.733-3.804-.142.142 3.022 7.609 1.813-.391 1.742-.284h5.227l3.058.462.533.142q.142 0 .302.036t.267.071l2.809-7.716-.107-.071zm2.915 9.138q0-.569-.249-1.031t-.747-.747q-.498-.249-1.173-.533t-1.529-.498l-.818-.213-.853-.178h-5.973l-.498.124t-.32.053l-.818.142-.676.142q-.604.107-1.173.32t-1.031.498q-.462.32-.693.8t-.231 1.12h16.782zm-19.484 2.631q0-.818.018-1.387t.018-.853q.036-.32.107-.8t.178-1.156q.107-.64.622-1.316t1.404-1.387l-3.307-10.524q-.498 0-.96-.196t-.782-.587-.516-.836-.196-.942q0-.533.196-1.031t.587-.853q.391-.391.853-.587t.96-.196q1.102 0 1.849.782.391.356.604.836t.213 1.013l-.107.604q-.036.178-.124.356t-.231.391l2.951 3.022.96-5.44q-.462-.178-.836-.48t-.622-.622q-.249-.391-.391-.8t-.142-.871q0-.569.213-1.102t.64-.96q.462-.427.996-.64t1.173-.213q.604 0 1.138.196t.996.622.711.96.249 1.102q0 .356-.107.693t-.284.622q-.213.356-.462.622t-.569.48l2.987 5.369 2.951-5.262q-.178-.107-.373-.284t-.338-.32q-.142-.213-.284-.444t-.213-.516l-.107-.462v-.427q0-1.173.889-2.062.427-.427.978-.658t1.156-.231 1.138.196.996.622q.498.427.729.96t.231 1.102q0 .889-.533 1.671-.284.356-.658.658t-.8.444l.924 5.689 2.809-3.307-.213-.64-.071-.676q0-.533.196-.996t.587-.818q.356-.391.818-.587t.996-.196q1.067 0 1.849.782.391.356.604.853t.213 1.031q0 .498-.178.942t-.498.764q-.32.356-.747.569t-.924.284l-3.378 10.453q.853.64 1.404 1.422t.693 1.671q.178.853.249 1.831t.071 2.044h-22.151z"/></svg>