<svg height="32" viewBox="0 0 32 32" width="32" xmlns="http://www.w3.org/2000/svg"><path d="m17.778 8.889-.249-.284-.391-.533q-.071-.107-.107-.249t-.036-.32l.036-.462.071-.498.036-.107v-.142l.071-.604v-.747q0-.249-.053-.516t-.196-.444q-.213-.284-.427-.356t-.32-.036q-.071-.071-.124-.089t-.107 0-.107.053-.089.036l-.213.036q-.107.036-.267.142t-.302.284q-.142.142-.231.391t-.089.498v.747l.071.604v.142l.036.107.071.498.036.462q0 .178-.036.32t-.107.249l-.391.533-.356.32-.427.356q-.178.178-.409.391t-.409.427q-.391.391-.764.96t-.693 1.316-.516 1.778-.196 2.311q0 .604.142 1.138t.391.996q.249.498.551.96t.658.924l.604.853.569.853.391.747.142.818q0 .533-.178.942t-.498.658-.747.391-.924.142h-7.858l.427 2.027h8.249q.284 0 .551-.071t.48-.249l.747-.818.107-.107.64-.711q.178-.142.409-.249t.516-.107q.178 0 .373.107t.373.249l.747.676.107.142.818.818q.178.178.409.249t.444.071h8.391l.462-2.027h-8q-.498 0-.924-.16t-.782-.48q-.356-.356-.551-.747t-.196-.818v-.427l.107-.391q.107-.284.284-.587t.427-.658l1.031-1.351q.107-.107.267-.356t.373-.533q.142-.213.32-.498t.32-.569q.32-.533.48-1.138t.16-1.209q0-1.173-.249-2.222t-.676-1.973-1.138-1.653-1.564-1.227zm11.911 21.653h-10.418q-.284 0-.533-.071t-.498-.249q-.213-.178-.427-.391t-.391-.462l-.32-.427-.284-.356-.32-.213q-.036-.071-.124-.107t-.16-.036h-.249l-.178.107q-.071.036-.231.142t-.338.284l-.533.569q-.142.249-.409.462t-.587.391q-.284.178-.711.267t-.924.089h-9.813l-1.529-7.289h10.311q.036 0 .089-.071t.089-.142q0-.142-.142-.338t-.391-.444l-1.067-1.351q-.32-.427-.622-.96t-.516-1.138q-.213-.569-.338-1.333t-.124-1.618q0-1.067.178-1.991t.533-1.707q.356-.747.782-1.458t.889-1.28q.498-.569.942-1.031t.8-.782q.391-.32.604-.551t.213-.373l-.071-.32-.107-.533-.107-.64v-.818q0-.604.267-1.173t.836-1.067q.533-.462 1.173-.729t1.28-.267h.32q.498.036.978.338t.942.8q.427.498.658 1.138t.231 1.351v.533q0 .107-.018.231t-.089.196l-.142.427-.071.533.498.533.711.604q.924.853 1.636 1.742t1.173 1.849q.462.924.711 2.062t.249 2.453q0 .676-.124 1.316t-.373 1.244-.533 1.12-.569.978l-1.138 1.529q-.213.249-.338.498t-.124.427q.071.107.124.16l.053.053h10.24zm-17.351-16.924h2.453v-2.418h2.418v2.418h2.453v2.418h-2.453v3.662h-2.418v-3.662h-2.453z"/></svg>