<svg height="32" viewBox="0 0 32 32" width="32" xmlns="http://www.w3.org/2000/svg"><path d="m18.24 9.564-.747-1.742-.853-.569h-1.529l-.711.569-.853 1.742h-2.204l-.853-1.742h-.604l-.356.107-.178.071-.213.071v.142q0 .604.036 1.031t.071.676q0 .213.107.551t.249.693q.213.64.551 1.067t.8.676l2.667-.391 2.276-.142h.96q.213 0 .48.018t.516.053q.498 0 .96.053t.818.124l.711.107.676.178q.391-.249.676-.622t.462-.836q.071-.249.124-.498t.089-.498q.071-.249.124-.569t.053-.676v-1.138l-.356-.142-.427-.107h-.604l-.818 1.742h-2.098zm2.311 5.974q-.249-.071-.587-.178t-.764-.178l-1.564-.213-.96-.071-.782-.036q-.462 0-.889.018t-.818.018-.818.053-.818.124q-.427.071-.782.196t-.604.267l-.96 7.147 2.702-.569h6.222q.32 0 .604.018t.498.089q.178.036.498.16t.782.302zm3.378 12.373q0-.604-.231-1.067t-.693-.747q-.498-.249-1.173-.516t-1.493-.48l-1.031-.249-1.316-.142h-4.693l-1.351.142q-.107 0-.267.018t-.267.018q-.071 0-.196.053t-.267.124q-.604.107-1.173.338t-1.031.516q-.498.32-.729.818t-.231 1.173h16.142zm-18.845 2.631q0-1.209.071-2.204t.213-1.813q.178-.853.711-1.671t1.422-1.6l1.173-9.031-.249-.249-.249-.32-.604-.747-.533-.889q0-.071-.036-.124l-.036-.053-.071-.249-.213-.64t-.142-.64v-2.738l.178-1.387q.533-.249 1.067-.427t1.067-.284l1.991-.284.747 1.458h1.707l.498-2.169 1.067-.142h2.56l.747.107.356 2.204h1.636l.64-1.458h.782l1.778.356q.427.071.853.231t.818.338l.142.853v2.276l-.178 1.102q0 .142-.018.32t-.018.32q-.071.107-.107.213t-.036.178l-.071.142-.284.676-.853 1.28-.569.747 1.173 9.031q.818.604 1.333 1.387t.693 1.742.284 2.009.107 2.151h-21.547z"/></svg>